<svg
  id="Capa_1"
  data-name="Capa 1"
  xmlns="http://www.w3.org/2000/svg"
  xmlns:xlink="http://www.w3.org/1999/xlink"
  viewBox="0 0 318.64 253.28"
>
  <defs>
    <style>
      .cls-1 {
        fill: url(#Degradado_sin_nombre_3);
      }
      .cls-2 {
        fill: url(#Degradado_sin_nombre_3-2);
      }
    </style>
    <linearGradient
      id="Degradado_sin_nombre_3"
      x1="79.57"
      y1="121.19"
      x2="232.51"
      y2="121.19"
      gradientUnits="userSpaceOnUse"
    >
      <stop offset="0" stop-color="#366cd9" />
      <stop offset="1" stop-color="#122a81" />
    </linearGradient>
    <linearGradient
      id="Degradado_sin_nombre_3-2"
      x1="58.92"
      y1="125.54"
      x2="259.72"
      y2="125.54"
      xlink:href="#Degradado_sin_nombre_3"
    />
  </defs>
  <path
    class="cls-1"
    d="M225.34,73.39l-61.79-36.8a14.66,14.66,0,0,0-15,0L86.74,73.39A14.74,14.74,0,0,0,79.57,86v70.1a14.76,14.76,0,0,0,7.17,12.61l61.88,36.85a14.75,14.75,0,0,0,6.36,2,2,2,0,0,0,1,.31h0a2.07,2.07,0,0,0,1-.3,14.58,14.58,0,0,0,6.4-1.91L225.19,170a14.73,14.73,0,0,0,7.32-12.7V86A14.74,14.74,0,0,0,225.34,73.39Zm2.83,83.86a10.37,10.37,0,0,1-5.16,8.94l-61.7,35.7a10.3,10.3,0,0,1-3.07,1.15l.74-74.43a10.37,10.37,0,0,1,5.15-8.84l59-34.17a2.17,2.17,0,1,0-2.18-3.76L162,116a14.75,14.75,0,0,0-7.32,12.55L153.9,203a10.06,10.06,0,0,1-3.05-1.18L89,165a10.37,10.37,0,0,1-5-8.87V86a10.37,10.37,0,0,1,5-8.88l61.8-36.8a10.36,10.36,0,0,1,10.57,0l61.79,36.8a10.38,10.38,0,0,1,5,8.88Z"
  />
  <path
    class="cls-2"
    d="M259.62,111.06c-1.09-8.34-11.11-14.43-29.05-17.71v6.77c15.69,3.06,22,8,22.46,11.81.56,4.27-5.42,11.67-23.89,19.6-17.37,7.46-41,13.43-66.66,16.79s-50,3.72-68.73,1c-19.89-2.89-27.58-8.49-28.14-12.76-.47-3.63,3.77-9.51,16.36-16.06v-7.44c-16.12,7.74-24,16.11-23,24.37,1.87,14.21,29.44,20.3,62.75,20.3a324.21,324.21,0,0,0,41.59-2.81c26.21-3.44,50.5-9.58,68.42-17.28C251.18,129.31,260.81,120.11,259.62,111.06Z"
  />
</svg>
